<svg width="1200" height="630" viewBox="0 0 1200 630" xmlns="http://www.w3.org/2000/svg">
  <defs>
    <linearGradient id="bg" x1="0" y1="0" x2="1" y2="1">
      <stop offset="0" stop-color="#17150f"/>
      <stop offset="1" stop-color="#100f0c"/>
    </linearGradient>
  </defs>
  <rect width="1200" height="630" fill="url(#bg)"/>
  <!-- Mark -->
  <g transform="translate(112 205)">
    <rect width="220" height="220" rx="49" fill="#F4C63A"/>
    <g transform="translate(0 0) scale(0.4297)">
      <path fill="#141208" transform="translate(0 6)" d="
        M150 128 h132 c56 0 96 38 96 92 c0 42 -24 73 -62 86 l70 106
        a4 4 0 0 1 -3 6 h-58 a4 4 0 0 1 -3 -2 l-64 -100 h-34 v98
        a4 4 0 0 1 -4 4 h-53 a4 4 0 0 1 -4 -4 V132 a4 4 0 0 1 4 -4 Z
        M211 182 v78 h60 c26 0 41 -15 41 -39 c0 -24 -15 -39 -41 -39 Z"/>
    </g>
  </g>
  <!-- Wordmark + tagline -->
  <text x="384" y="300" font-family="'Bricolage Grotesque','Hanken Grotesk','Helvetica Neue',Arial,sans-serif"
        font-size="104" font-weight="800" letter-spacing="-3" fill="#f3efe6">Reelate</text>
  <text x="388" y="366" font-family="'Hanken Grotesk','Helvetica Neue',Arial,sans-serif"
        font-size="34" font-weight="500" fill="#a8a196">AI short-video studio</text>
  <text x="388" y="430" font-family="'JetBrains Mono','SF Mono',monospace"
        font-size="24" font-weight="400" letter-spacing="1" fill="#c9a93b">Type a topic. Post a video.</text>
</svg>
